# xmcd
# 
# Track frame offsets:
#     150
#     21502
#     42574
#     57258
#     75700
#     98995
#     116980
#     134346
#     150509
#     176739
#     194868
#     217801
#     234330
#     240928
#     247659
# 
# Disc length: 3580
# 
# Revision: 3
# Processed by: cddbd v1.5.2PL0 Copyright (c) Steve Scherf et al.
# Submitted via: BonkEnc v1.0
# 
DISCID=cb0dfa0f
DTITLE=Παντελής Θαλασσινός - Το Καλαντάρι
DYEAR=2006
DGENRE=Greek
TTITLE0=Ï ÷ñüíïò ôïõ ÃåíÜñç
TTITLE1=ÖëåâÜñçò ôùí öëåâþí
TTITLE2=Ï ÌÜñôçò ÌÜñôç ìßëçóå
TTITLE3=Åíáò åõáßóèçôïò Áðñßëçò
TTITLE4=Ï ÌÜçò Ý÷åé ìõóôéêÜ
TTITLE5=Ôïí Ýêôï ìÞíá ôïí êáëü
TTITLE6=Éïýëéïò ðïñèçôÞò
TTITLE7=Áýãïõóôïò åßíáé
TTITLE8=Åíáò ìéêñüò ãëõêüò ðáëéüò ÓåðôÝìâñçò
TTITLE9=Ï Ïêôþâñçò óçìáßá óôá ìðáëêüíéá
TTITLE10=ÍïÝìâñçò ìÞíáò ôáîéäåýåé
TTITLE11=Äüîá ÄåêÝìâñç ìÞíá
TTITLE12=Êåíü
TTITLE13=Êåíü
TTITLE14=Ïñãáíéêü
EXTD=
EXTT0=
EXTT1=
EXTT2=
EXTT3=
EXTT4=
EXTT5=
EXTT6=
EXTT7=
EXTT8=
EXTT9=
EXTT10=
EXTT11=
EXTT12=
EXTT13=
EXTT14=
PLAYORDER=
